<svg xmlns="http://www.w3.org/2000/svg" width="1200" height="675" viewBox="0 0 1200 675" role="img" aria-labelledby="title desc"><title id="title">Car accident scene documentation</title><desc id="desc">Illustration of two cars, cones, and a clipboard for documenting an insurance claim</desc><rect width="1200" height="675" fill="#0b1220"/><rect x="40" y="60" width="1120" height="555" rx="12" fill="#0f172a"/><g><rect x="160" y="340" width="280" height="80" rx="12" fill="#ef4444"/><rect x="420" y="330" width="60" height="30" rx="4" fill="#e2e8f0"/></g><g><rect x="760" y="340" width="280" height="80" rx="12" fill="#3b82f6"/><rect x="720" y="330" width="60" height="30" rx="4" fill="#e2e8f0"/></g><g><rect x="520" y="220" width="220" height="300" rx="12" fill="#0b2d3b" stroke="#22c55e"/><rect x="540" y="250" width="180" height="20" rx="4" fill="#22c55e"/><rect x="540" y="290" width="140" height="14" rx="4" fill="#e2e8f0"/><rect x="540" y="320" width="160" height="14" rx="4" fill="#e2e8f0"/></g><g fill="#f59e0b"><polygon points="300,430 320,470 280,470"/><polygon points="900,430 920,470 880,470"/></g></svg>